<?xml version="1.0" standalone="no"?>
<!DOCTYPE svg PUBLIC "-//W3C//DTD SVG 20010904//EN"
 "http://www.w3.org/TR/2001/REC-SVG-20010904/DTD/svg10.dtd">
<svg version="1.0" xmlns="http://www.w3.org/2000/svg"
 width="1440.000000pt" height="753.000000pt" viewBox="0 0 1440.000000 753.000000"
 preserveAspectRatio="xMidYMid meet">

<style>
<![CDATA[
  .comm-display:hover { fill: #94d31b; }
  .nav-display:hover { fill: #94d31b; }

  .pull-25k:hover {
     transform-origin: center center;
     transform: rotate(45deg);
     transform-box: fill-box;
  }
  .nav-knob:hover {
     fill: #94d31b;
  }
  .vol-off:hover {
     transform-origin: center center;
     transform: rotate(75deg);
     transform-box: fill-box;
  }
  .pull-ident:hover {
     transform-origin: center center;
     transform: rotate(75deg);
     transform-box: fill-box;
  }

  .toggle-comm-freq:hover { fill: #94d31b; }
  .toggle-nav-freq:hover { fill: #94d31b; }


svg {
	font-family: 'Russo One', sans-serif;
	width: 100%; height: 100%;
}
svg text {
	text-transform: uppercase;
	stroke-width: 2;
	stroke: #f03c16;
	font-size: 45px;
}
]]>
</style>

<g transform="translate(0.000000,753.000000) scale(0.100000,-0.100000)"
fill="#000000" stroke="none">
<path class="face" d="M708 6001 c-97 -3 -180 -9 -183 -13 -4 -4 -11 -47 -16 -96 -9 -91 -8
-3946 1 -3955 6 -6 3935 -9 9077 -8 l3682 1 13 23 c9 17 12 336 12 1447 1
2180 -2 2543 -19 2536 -10 -3 -15 1 -15 13 0 42 -29 45 -575 52 -617 8 -11720
8 -11977 0z m6061 -60 c30 -4 59 -15 65 -23 14 -19 16 -1891 3 -1905 -5 -4
-1386 -10 -3070 -13 -2691 -4 -3065 -7 -3085 -20 -45 -30 -52 -64 -52 -264 0
-185 0 -187 24 -211 l25 -25 1987 0 c1093 0 1990 -2 1992 -5 3 -3 -8 -22 -25
-43 l-30 -37 -2014 -5 c-1108 -3 -2022 -1 -2031 3 -17 7 -18 76 -18 1243 0
1358 -4 1277 59 1301 31 13 6084 16 6170 4z m6471 -21 c27 -29 28 -34 35 -172
3 -79 5 -632 3 -1230 -3 -1029 -4 -1088 -21 -1105 -16 -17 -45 -18 -391 -17
l-373 1 -37 28 c-72 54 -69 55 304 55 380 0 389 1 416 65 17 42 20 319 3 378
-7 26 -21 44 -42 57 -32 20 -78 20 -3018 20 -2377 0 -2989 3 -2996 13 -20 24
-22 150 -24 1021 l-1 880 22 18 c21 17 144 18 3057 18 l3035 0 28 -30z m-9701
-1971 c17 -6 36 -20 42 -30 6 -12 9 -83 8 -174 -3 -246 13 -237 -431 -233
l-306 3 -26 24 c-26 24 -26 25 -26 194 l0 169 29 29 29 29 325 0 c211 0 335
-4 356 -11z m6592 -8 c23 -19 24 -24 27 -198 3 -166 2 -181 -16 -204 l-20 -24
-331 -3 c-368 -3 -369 -3 -397 65 -15 34 -20 295 -7 328 3 10 24 26 47 36 37
17 70 19 357 19 297 0 318 -1 340 -19z m-8486 -106 c0 -16 -6 -19 -26 -17 -17
2 -29 -3 -33 -13 -7 -19 1 -38 14 -30 5 3 20 0 34 -6 23 -11 26 -18 26 -60 0
-41 -4 -51 -25 -65 -32 -21 -75 -6 -75 26 0 24 18 26 35 3 16 -22 35 -8 35 27
0 34 -13 45 -38 31 -27 -14 -42 5 -42 54 0 58 17 76 70 72 18 -1 25 -8 25 -22z
m629 9 c18 -17 21 -50 7 -59 -6 -3 -15 4 -21 15 -13 25 -50 27 -50 3 0 -10 17
-28 39 -40 88 -50 41 -153 -53 -117 -10 4 -16 18 -16 35 0 35 6 36 29 7 12
-14 24 -19 35 -15 23 9 17 39 -11 52 -40 20 -53 38 -53 71 0 53 59 83 94 48z
m178 -1 c27 -25 26 -165 -2 -193 -11 -11 -27 -20 -36 -20 -19 0 -56 19 -66 34
-13 19 -9 151 5 168 24 31 71 36 99 11z m3555 11 c21 -6 39 -32 28 -42 -3 -3
-13 2 -23 12 -41 36 -66 -2 -60 -90 3 -42 6 -49 26 -52 13 -2 30 2 38 9 19 16
26 8 11 -12 -21 -28 -54 -32 -76 -10 -17 17 -21 34 -21 88 0 88 19 112 77 97z
m183 -14 c26 -26 28 -133 4 -168 -19 -28 -57 -29 -84 -2 -26 26 -29 149 -4
174 21 22 60 20 84 -4z m6310 -52 c35 -120 39 -121 39 -20 1 59 5 91 11 87 6
-3 10 -48 10 -100 0 -73 -3 -94 -15 -99 -19 -7 -38 24 -55 87 -19 71 -30 67
-30 -12 0 -41 -4 -71 -10 -71 -6 0 -10 40 -10 100 0 93 1 100 20 100 16 0 24
-14 40 -72z m189 54 c14 -27 53 -174 47 -179 -8 -8 -26 7 -26 23 0 9 -11 14
-36 14 -27 0 -37 -5 -41 -20 -6 -24 -23 -27 -23 -3 0 17 38 162 47 176 7 13
22 8 32 -11z m136 -99 c4 -24 11 -43 15 -43 4 0 12 32 19 70 12 68 26 89 33
53 4 -17 -2 -48 -23 -135 -11 -41 -32 -50 -48 -20 -18 33 -43 162 -35 180 5
13 10 8 20 -23 7 -22 15 -59 19 -82z m-11835 66 c0 -38 10 -36 39 6 13 19 27
35 32 35 15 0 10 -38 -10 -70 -18 -31 -18 -32 6 -80 23 -46 24 -70 3 -70 -5 0
-19 18 -30 41 -23 43 -44 47 -46 8 -2 -44 -4 -48 -19 -43 -12 5 -15 26 -15
103 0 54 3 100 6 104 14 13 34 -7 34 -34z m170 1 c16 -38 24 -38 40 0 14 33
40 41 40 12 0 -11 -7 -33 -16 -51 -15 -30 -15 -34 5 -77 21 -43 21 -64 1 -64
-5 0 -17 16 -26 35 -18 39 -27 38 -49 -6 -9 -16 -20 -29 -25 -29 -15 0 -12 37
6 72 15 29 15 34 0 65 -17 35 -21 65 -10 76 10 10 20 0 34 -33z m334 24 c10
-27 7 -192 -5 -199 -18 -12 -22 3 -20 80 2 70 1 75 -18 75 -28 0 -27 25 1 44
28 20 34 20 42 0z m316 2 c0 -9 -12 -16 -32 -18 -25 -2 -34 -8 -36 -25 -3 -20
1 -23 31 -23 39 0 47 -12 47 -66 0 -38 -29 -74 -59 -74 -20 0 -51 25 -51 40 0
18 23 22 32 6 15 -26 35 -19 42 16 8 41 -6 55 -38 40 -13 -6 -27 -8 -30 -5 -8
9 -8 108 1 116 3 4 26 7 50 7 31 0 43 -4 43 -14z m330 5 c0 -5 -10 -15 -22
-23 -18 -12 -22 -26 -26 -96 -6 -107 -26 -106 -30 1 -3 69 -5 79 -27 93 -14 9
-22 20 -19 25 7 12 124 12 124 0z m4179 -28 c6 -21 11 -46 11 -55 0 -24 11
-48 21 -48 5 0 9 9 9 21 0 11 7 43 16 70 12 36 21 49 33 47 13 -3 17 -20 19
-91 2 -65 0 -87 -9 -82 -7 5 -9 24 -7 49 3 23 2 50 -2 61 -6 15 -12 3 -29 -52
-14 -47 -27 -73 -36 -73 -8 0 -15 6 -16 13 0 6 -2 19 -5 27 -2 8 -8 34 -13 58
-13 65 -19 61 -27 -17 -4 -40 -11 -68 -16 -65 -7 5 -7 66 1 167 1 4 10 7 21 7
14 0 22 -11 29 -37z m228 25 c4 -7 12 -37 18 -67 6 -30 16 -56 22 -58 5 -2 16
23 23 57 13 60 30 87 50 75 6 -3 10 -45 10 -98 0 -105 -17 -110 -22 -7 l-3 65
-23 -72 c-12 -40 -27 -75 -32 -78 -12 -7 -28 31 -43 105 -10 51 -12 53 -18 25
-4 -16 -7 -52 -8 -78 -1 -29 -5 -46 -11 -42 -11 7 -14 143 -4 169 7 19 30 21
41 4z m-1193 -198 c239 -75 402 -315 383 -565 -19 -248 -189 -448 -432 -510
-123 -31 -293 -10 -400 49 -269 151 -367 463 -233 745 63 132 221 257 376 296
77 20 217 13 306 -15z m6784 -10 c70 -26 173 -94 150 -98 -9 -2 -45 9 -80 23
-124 53 -144 58 -234 63 -154 7 -282 -44 -383 -154 -241 -264 -167 -666 153
-825 81 -40 92 -43 189 -47 94 -4 110 -2 192 26 50 17 106 33 125 37 34 6 34
5 15 -10 -100 -81 -294 -116 -439 -79 -252 65 -415 282 -416 554 0 274 213
513 480 539 84 8 178 -3 248 -29z m223 -152 c22 -27 24 -38 7 -38 -23 1 -51
29 -45 45 8 20 15 19 38 -7z m-1201 -10 c0 -7 -9 -28 -20 -45 l-20 -33 -2627
0 c-1446 0 -2633 4 -2639 8 -15 10 -34 47 -34 66 0 15 254 16 2670 16 2129 0
2670 -3 2670 -12z m1135 -27 c245 -112 301 -442 105 -625 -87 -81 -190 -112
-310 -91 -121 21 -210 87 -268 199 -35 68 -36 76 -37 171 0 88 3 107 27 157
37 80 71 122 129 159 73 46 114 58 207 59 70 0 92 -4 147 -29z m-11485 -116
c7 -9 10 -26 6 -42 -4 -16 -8 -48 -10 -72 -2 -29 -9 -49 -21 -57 -24 -18 -84
-18 -91 -1 -8 23 26 161 43 175 23 16 58 15 73 -3z m134 -10 c-3 -7 -15 -15
-27 -17 -29 -4 -36 -38 -8 -38 12 0 21 -6 21 -15 0 -9 -9 -15 -24 -15 -22 0
-36 -16 -36 -41 0 -5 12 -9 26 -9 19 0 25 -4 22 -17 -3 -14 -12 -17 -43 -15
-22 2 -42 5 -43 7 -2 2 5 41 15 87 18 82 19 83 53 89 42 6 51 3 44 -16z m80 9
c9 -8 16 -27 16 -42 1 -26 1 -26 15 -8 8 11 15 28 15 38 0 10 5 18 10 18 14 0
12 -53 -4 -120 -10 -43 -17 -55 -32 -55 -14 0 -20 8 -22 33 -4 42 -18 41 -26
-3 -4 -21 -13 -35 -21 -35 -18 0 -18 2 0 92 23 108 23 109 49 82z m206 -24 c9
-35 -7 -110 -27 -132 -11 -12 -30 -18 -60 -18 -23 0 -43 2 -43 4 0 7 30 138
36 159 5 14 14 17 47 15 35 -3 42 -7 47 -28z m80 5 c0 -32 -20 -126 -32 -149
-6 -12 -13 -15 -20 -8 -9 9 14 151 28 174 10 16 24 7 24 -17z m73 5 c3 -11 10
-20 15 -20 6 0 14 9 17 20 3 11 13 20 21 20 18 0 18 -3 -6 -50 -16 -30 -18
-45 -10 -65 13 -34 13 -65 0 -65 -6 0 -15 12 -21 28 -10 26 -11 26 -25 8 -8
-11 -14 -23 -14 -28 0 -4 -7 -8 -15 -8 -20 0 -19 12 6 55 19 32 20 41 11 72
-6 20 -9 40 -6 45 9 14 21 9 27 -12z m307 -7 l0 -26 25 23 c34 32 41 21 15
-24 -19 -31 -20 -40 -10 -72 9 -26 9 -39 1 -47 -8 -8 -14 -2 -22 21 -12 35
-29 43 -29 15 0 -28 -17 -50 -30 -37 -9 9 3 85 26 162 6 23 24 12 24 -15z
m418 15 c7 -7 12 -21 12 -32 0 -20 -1 -20 -18 2 -25 32 -48 20 -61 -33 -15
-58 -14 -85 2 -85 18 0 37 21 37 41 0 9 7 19 15 23 11 4 15 -2 15 -20 0 -43
-17 -64 -53 -64 -58 0 -70 31 -42 111 22 62 63 87 93 57z m-510 -10 c-6 -24
-83 -158 -90 -158 -16 0 -7 35 24 89 38 68 48 81 60 81 5 0 8 -6 6 -12z m229
-35 c-9 -66 -26 -123 -37 -123 -12 0 -13 34 -1 80 5 19 12 47 15 63 11 48 29
32 23 -20z m93 9 c7 -43 23 -42 34 2 13 50 29 45 21 -6 -12 -68 -30 -123 -40
-121 -6 1 -14 15 -19 33 -10 35 -28 35 -36 0 -3 -13 -12 -26 -19 -28 -9 -3
-11 2 -8 14 5 17 27 132 27 142 0 2 8 2 18 0 11 -2 19 -15 22 -36z m10640
-222 c0 -5 -4 -10 -10 -10 -5 0 -10 5 -10 10 0 6 5 10 10 10 6 0 10 -4 10 -10z
m-10742 -96 c93 -46 137 -128 130 -239 -5 -80 -44 -147 -110 -190 -26 -16 -49
-38 -51 -47 -5 -19 -27 -25 -27 -8 0 6 -19 10 -43 10 -102 0 -197 53 -240 133
-31 59 -31 175 0 233 64 120 219 169 341 108z m6777 -5 c56 -26 117 -95 133
-147 7 -22 12 -60 12 -85 0 -25 5 -49 10 -52 16 -10 11 -33 -8 -40 -11 -3 -24
-16 -30 -30 -34 -75 -120 -124 -221 -126 -110 -3 -208 65 -242 168 -18 57 -7
161 24 209 29 47 78 91 122 110 48 21 148 17 200 -7z m3755 -237 c0 -15 -38
-44 -49 -37 -17 10 -13 21 12 33 28 13 37 14 37 4z m-3409 -113 c12 -24 1 -46
-32 -62 -15 -8 -25 -23 -27 -40 -2 -15 -8 -25 -13 -22 -13 8 -11 129 2 142 15
15 58 4 70 -18z m69 -39 c0 -54 12 -82 28 -65 4 4 7 33 7 65 1 62 6 77 24 65
15 -9 14 -118 -2 -139 -9 -12 -23 -17 -42 -14 -29 3 -30 6 -38 67 -8 68 -4 96
13 86 5 -3 10 -33 10 -65z m140 0 c0 -42 4 -59 15 -64 26 -9 16 -27 -12 -24
-27 3 -28 5 -31 67 -3 69 2 96 18 86 5 -3 10 -32 10 -65z m108 5 c2 -41 8 -62
20 -71 19 -14 13 -24 -15 -28 -33 -6 -43 13 -43 84 0 36 3 70 7 74 17 16 28
-5 31 -59z m-6786 -12 c2 -54 6 -68 20 -71 14 -3 17 7 20 60 2 35 8 63 13 63
14 0 18 -86 5 -119 -8 -23 -15 -27 -42 -24 l-33 3 -3 78 c-2 46 1 77 7 77 6 0
11 -30 13 -67z m-67 37 c8 -27 -10 -58 -37 -62 -16 -2 -25 -12 -29 -33 -4 -20
-7 -6 -8 43 l-1 72 34 0 c26 0 36 -5 41 -20z m195 -41 c0 -52 3 -62 20 -66 11
-3 20 -9 20 -13 0 -9 -47 -19 -55 -12 -10 10 -5 152 5 152 6 0 10 -27 10 -61z
m110 -10 c0 -53 2 -59 21 -59 28 0 19 -24 -11 -28 -12 -2 -27 2 -31 10 -10 15
-12 132 -3 141 15 15 24 -8 24 -64z m-1142 -238 c3 -69 -7 -91 -44 -91 -31 0
-44 27 -44 89 0 57 25 86 64 72 18 -7 21 -17 24 -70z m112 59 c0 -5 -7 -10
-15 -10 -9 0 -15 -9 -15 -25 0 -16 6 -25 15 -25 8 0 15 -4 15 -10 0 -5 -7 -10
-15 -10 -9 0 -15 -9 -15 -24 0 -23 -18 -47 -21 -29 -5 26 -6 129 -2 136 6 11
53 9 53 -3z m120 1 c0 -5 -9 -11 -20 -14 -11 -3 -20 -13 -20 -22 0 -9 9 -19
20 -22 11 -3 20 -9 20 -14 0 -5 -9 -9 -20 -9 -16 0 -20 -7 -20 -30 0 -16 -4
-30 -10 -30 -5 0 -10 1 -10 3 -8 50 -11 120 -6 132 6 16 66 22 66 6z m830 -16
c10 -12 10 -19 2 -27 -8 -8 -13 -7 -18 5 -9 24 -34 21 -34 -3 0 -12 10 -25 25
-32 34 -15 44 -56 19 -75 -24 -17 -54 -13 -68 9 -15 24 1 36 18 13 8 -11 20
-16 30 -12 24 10 19 26 -14 45 -35 20 -45 43 -30 72 13 24 52 27 70 5z m130 1
c0 -8 -7 -16 -15 -20 -11 -4 -15 -21 -15 -60 0 -30 -4 -58 -10 -61 -6 -4 -10
16 -10 53 0 41 -5 63 -15 72 -25 21 -17 30 25 30 28 0 40 -4 40 -14z m6189 0
c7 -8 11 -38 9 -72 -3 -56 -4 -58 -37 -67 -43 -11 -51 0 -51 70 0 55 17 83 49
83 10 0 24 -6 30 -14z m111 5 c0 -5 -7 -11 -15 -15 -20 -7 -19 -33 1 -44 14
-8 14 -10 0 -21 -20 -17 -21 -41 -1 -41 8 0 15 -7 15 -16 0 -11 -5 -14 -16
-10 -9 3 -20 6 -25 6 -10 0 -13 133 -2 143 10 10 43 8 43 -2z m111 -25 c14
-38 29 -38 29 0 0 13 5 24 10 24 7 0 10 -27 8 -72 -2 -54 -7 -73 -17 -73 -15
0 -24 13 -43 60 l-12 30 -4 -35 c-7 -67 -22 -56 -22 16 0 39 3 74 7 77 15 16
32 5 44 -27z m169 19 c0 -8 -4 -15 -10 -15 -5 0 -10 -20 -10 -44 0 -24 -3 -51
-6 -60 -12 -31 -24 -15 -24 32 0 27 -6 57 -15 68 -22 29 -18 34 25 34 29 0 40
-4 40 -15z m-6862 -2 c-22 -6 -25 -53 -3 -53 8 0 15 -4 15 -10 0 -5 -7 -10
-15 -10 -10 0 -15 -10 -15 -31 0 -17 -4 -28 -10 -24 -11 7 -14 118 -3 128 3 4
16 6 27 6 17 -1 18 -2 4 -6z m-116 -70 c-3 -44 -7 -61 -13 -52 -10 16 -11 64
-3 97 12 42 19 22 16 -45z m6457 15 c-1 -45 -2 -49 -9 -23 -11 44 -11 75 0 75
6 0 9 -23 9 -52z m-6322 -84 c-3 -3 -12 -4 -19 -1 -8 3 -5 6 6 6 11 1 17 -2
13 -5z"/>
<path class="comm-display" d="M641 5841 c-12 -21 -17 -1675 -6 -1704 4 -10 22 -25 39 -35 29 -16
219 -17 3001 -20 2088 -2 2981 0 3007 8 20 6 46 22 57 37 21 25 21 34 21 830
0 889 4 841 -65 882 l-36 21 -3004 0 c-2923 0 -3005 -1 -3014 -19z m1370
-1282 c17 -17 18 -23 8 -36 -12 -13 -14 -13 -26 3 -10 14 -16 15 -25 6 -8 -8
-3 -16 20 -29 35 -20 47 -43 37 -74 -9 -26 -50 -42 -76 -29 -23 13 -26 60 -4
60 8 0 15 -7 15 -15 0 -8 7 -15 15 -15 23 0 18 28 -7 41 -44 23 -52 68 -16 93
29 21 34 20 59 -5z m2783 5 c31 -30 7 -57 -25 -28 -17 15 -19 15 -19 1 0 -8
14 -25 30 -37 50 -36 37 -100 -20 -100 -30 0 -50 17 -50 42 0 23 26 24 38 2 5
-9 14 -14 21 -10 19 12 13 23 -24 45 -39 23 -46 53 -18 83 20 22 46 23 67 2z
m136 7 c0 -5 -7 -16 -15 -25 -10 -10 -15 -35 -15 -74 0 -42 -4 -61 -14 -65
-22 -9 -26 2 -26 66 0 44 -4 63 -17 72 -9 7 -13 17 -9 23 9 14 96 16 96 3z
m100 -1 c15 -8 20 -21 20 -58 0 -26 0 -56 0 -67 1 -27 -29 -46 -65 -43 l-30 3
-3 74 c-2 41 -1 80 2 88 6 15 49 17 76 3z m84 -17 l14 -28 11 28 c11 27 25 35
35 18 3 -5 -3 -29 -14 -52 -11 -24 -20 -59 -20 -76 0 -23 -5 -33 -15 -33 -11
0 -15 11 -15 35 0 20 -9 54 -20 76 -20 38 -20 59 0 59 5 0 16 -12 24 -27z
m-3284 -45 c0 -35 4 -69 9 -77 15 -23 31 21 31 83 0 43 3 56 15 56 12 0 15
-14 15 -70 0 -57 -4 -74 -20 -90 -23 -23 -33 -24 -61 -10 -16 9 -19 22 -19 84
0 40 3 76 7 79 17 17 23 2 23 -55z m300 47 c0 -8 -9 -15 -20 -15 -13 0 -20 -7
-20 -20 0 -13 7 -20 20 -20 11 0 20 -7 20 -15 0 -8 -9 -15 -20 -15 -13 0 -20
-7 -20 -20 0 -15 7 -20 26 -20 40 0 23 -25 -19 -28 l-37 -3 0 85 0 86 35 0
c24 0 35 -5 35 -15z"/>
<path id="comm_display0" d="M 110,250 L 350,250"/>
<path id="comm_display1" d="M 410,250 L 650,250"/>
<path d="M4987 4534 c-8 -8 1 -24 14 -24 5 0 9 7 9 15 0 15 -12 20 -23 9z"/>
<path d="M4990 4455 c0 -17 5 -25 13 -22 6 2 12 12 12 22 0 10 -6 20 -12 23
-8 2 -13 -6 -13 -23z"/>
<path class="nav-display" d="M7255 5863 c-41 -8 -67 -39 -76 -89 -13 -78 -11 -1585 2 -1622 7 -22
24 -37 53 -52 l43 -20 2926 2 2927 3 27 28 28 28 0 829 c-1 870 -1 868 -44
886 -16 6 -5849 14 -5886 7z m1043 -1366 c2 -50 7 -67 17 -67 10 0 15 18 17
68 2 52 6 67 18 67 12 0 16 -16 18 -69 3 -76 -12 -106 -54 -106 -40 0 -54 25
-54 99 0 37 3 71 7 75 17 17 28 -6 31 -67z m176 67 c20 -8 21 -54 2 -54 -8 0
-17 7 -20 16 -3 9 -11 12 -18 8 -8 -5 -2 -16 19 -33 39 -34 47 -58 28 -87 -26
-40 -95 -25 -95 21 0 29 24 34 39 8 7 -13 13 -15 21 -7 8 8 1 18 -25 38 -66
51 -29 120 49 90z m124 -12 c2 -7 -5 -16 -17 -19 -27 -7 -27 -29 -1 -36 11 -3
20 -10 20 -17 0 -7 -9 -14 -20 -17 -11 -3 -20 -11 -20 -18 0 -7 9 -15 20 -18
11 -3 20 -13 20 -22 0 -13 -8 -16 -37 -13 l-38 3 -3 74 c-2 41 -1 80 2 88 7
18 68 14 74 -5z m2616 2 c17 -17 22 -44 7 -44 -5 0 -14 7 -21 15 -10 12 -16
13 -24 5 -8 -8 -2 -19 23 -39 52 -43 44 -100 -14 -101 -28 0 -45 19 -45 50 l1
25 18 -22 c11 -13 24 -23 30 -23 22 0 10 29 -19 50 -21 15 -30 30 -30 49 0 48
42 68 74 35z m132 4 c4 -6 0 -16 -9 -23 -13 -9 -17 -28 -17 -73 0 -57 -11 -85
-24 -63 -4 5 -9 36 -12 70 -4 36 -12 62 -20 65 -8 3 -14 12 -14 21 0 11 11 15
44 15 25 0 48 -5 52 -12z m104 -3 c6 -8 14 -43 15 -79 5 -74 -6 -89 -57 -84
l-33 3 -3 74 c-2 41 -1 80 2 88 7 18 60 17 76 -2z m76 -17 l17 -33 9 33 c5 18
15 32 23 32 18 0 19 -24 3 -53 -7 -12 -15 -44 -18 -70 -3 -26 -9 -48 -15 -48
-5 0 -14 22 -20 48 -6 26 -17 58 -23 70 -15 26 -16 53 -2 53 5 0 17 -15 26
-32z"/>
<path d="M11406 4533 c-12 -12 -6 -33 9 -33 8 0 15 6 15 14 0 17 -14 28 -24
19z"/>
<path d="M11403 4454 c-8 -21 13 -42 28 -27 13 13 5 43 -11 43 -6 0 -13 -7
-17 -16z"/>
<path class="toggle-comm-freq" d="M3223 3780 c-5 -29 -7 -30 -64 -30 -56 0 -59 1 -59 25 0 31 -5 31
-86 3 -89 -32 -88 -53 4 -90 38 -16 71 -28 74 -28 4 0 8 12 10 26 3 25 6 26
61 28 52 1 57 -1 57 -21 0 -26 16 -38 33 -25 7 5 36 18 66 28 53 19 72 37 55
54 -5 5 -40 20 -77 34 l-68 25 -6 -29z"/>
<path class="toggle-nav-freq" d="M9650 3772 c-30 -15 -55 -34 -55 -42 0 -15 133 -85 143 -75 3 3 6 15
7 28 2 20 7 22 61 22 51 0 59 -3 62 -20 2 -11 7 -23 10 -27 12 -11 137 56 140
75 4 19 -65 54 -125 64 -30 5 -33 3 -33 -21 0 -25 -2 -26 -54 -26 -49 0 -55 2
-58 23 -4 31 -33 31 -98 -1z"/>
<path d="M2377 3814 c-4 -4 -7 -36 -7 -70 0 -52 3 -65 19 -74 40 -21 52 -3 49
74 -3 68 -4 71 -28 74 -14 2 -29 0 -33 -4z"/>
<path d="M6140 3832 c-24 -8 -30 -24 -30 -82 0 -58 11 -80 42 -80 21 0 38 37
38 83 0 65 -16 90 -50 79z"/>
<path d="M12668 3815 c-3 -6 -8 -27 -12 -47 -6 -34 -5 -38 14 -38 14 0 20 6
19 23 -2 35 -14 73 -21 62z"/>
<path d="M5110 3620 c-197 -29 -364 -166 -431 -355 -28 -81 -30 -227 -4 -305
30 -91 62 -146 125 -213 96 -103 236 -167 366 -167 155 0 277 51 384 159 152
154 189 342 109 561 -55 151 -229 290 -400 319 -71 12 -69 12 -149 1z m126
-167 c58 -19 83 -34 146 -86 83 -67 120 -156 121 -287 1 -65 -4 -85 -33 -149
-48 -103 -135 -183 -234 -213 -142 -43 -290 -14 -380 77 -97 97 -131 182 -124
314 4 71 10 96 35 146 47 90 128 160 225 195 68 24 178 25 244 3z"/>
<path class="pull-25k" d="M5035 3411 c-91 -23 -183 -100 -225 -186 -21 -42 -25 -65 -25 -140 0
-78 4 -97 28 -146 30 -63 92 -125 159 -161 37 -20 57 -23 148 -23 96 0 109 2
151 27 65 38 114 90 146 156 24 50 28 69 28 147 0 76 -4 99 -26 145 -53 112
-157 181 -283 186 -39 2 -84 0 -101 -5z m135 -161 c0 -11 5 -42 11 -70 9 -43
14 -50 35 -50 35 0 30 -26 -7 -34 -17 -3 -35 -4 -39 -1 -11 7 -34 161 -25 174
9 16 25 4 25 -19z m104 8 c3 -13 9 -43 13 -68 7 -39 12 -45 36 -48 48 -6 25
-32 -28 -32 -26 0 -29 9 -41 113 -4 39 -3 57 5 57 6 0 13 -10 15 -22z m-155
-45 c15 -78 14 -100 -9 -123 -16 -16 -24 -18 -50 -9 -17 7 -32 20 -35 32 -12
46 -23 132 -18 140 12 20 22 1 33 -64 8 -44 18 -73 27 -76 27 -11 35 12 25 81
-5 36 -6 68 -4 71 13 13 20 1 31 -52z m-145 21 c17 -16 21 -51 8 -71 -4 -6
-19 -16 -34 -22 -24 -9 -26 -14 -21 -47 5 -29 3 -36 -8 -32 -16 5 -30 76 -27
133 3 32 7 40 28 46 37 10 37 10 54 -7z m246 -184 c0 -32 20 -33 31 -1 6 17
17 31 25 31 18 0 18 -2 -2 -43 -16 -33 -16 -35 11 -76 35 -52 23 -68 -16 -21
-30 36 -32 35 -29 -17 2 -37 -17 -45 -24 -10 -15 68 -25 151 -20 159 8 13 24
-1 24 -22z m-80 0 c0 -6 -12 -15 -26 -20 -27 -11 -24 -30 5 -30 26 0 41 -22
43 -63 2 -45 -17 -69 -51 -65 -18 2 -27 10 -29 26 -4 26 6 29 23 5 15 -21 35
-9 35 21 0 33 -25 53 -38 30 -5 -9 -14 -14 -20 -10 -13 8 -27 90 -17 105 8 14
75 14 75 1z m-122 -22 c17 -17 15 -43 -8 -89 -23 -43 -20 -59 11 -59 33 0 21
-19 -17 -26 -56 -10 -63 6 -30 75 16 32 25 64 22 70 -10 16 -33 14 -40 -4 -7
-19 -26 -20 -26 -1 0 37 61 61 88 34z"/>
<path d="M4914 3205 c-4 -9 -2 -21 4 -27 15 -15 44 -1 40 19 -4 23 -36 29 -44
8z"/>
<path class="nav-knob" d="M12013 3400 c-72 -36 -124 -91 -161 -170 -34 -70 -36 -189 -4 -260
61 -140 185 -218 331 -208 117 9 217 78 270 188 22 46 26 69 26 140 0 76 -4
93 -33 152 -59 120 -149 179 -282 186 -80 3 -89 2 -147 -28z"/>
<path d="M753 3285 c-3 -9 -3 -18 0 -22 10 -10 37 6 37 22 0 20 -29 20 -37 0z"/>
<path d="M741 3211 c-15 -27 -14 -31 9 -31 13 0 20 7 20 19 0 28 -17 35 -29
12z"/>
<path d="M1156 3263 c-4 -21 -10 -48 -13 -60 -4 -18 -1 -23 16 -23 25 0 39 24
43 76 3 33 0 39 -18 42 -18 3 -23 -4 -28 -35z"/>
<path class="vol-off" d="M1626 2935 c-135 -48 -182 -234 -84 -335 41 -41 101 -69 151 -70 42
0 44 8 26 71 -10 30 -9 42 1 54 18 21 30 7 45 -51 7 -27 17 -50 23 -52 16 -5
81 57 103 99 25 50 25 128 0 177 -24 46 -76 97 -114 111 -38 15 -104 13 -151
-4z"/>
<path class="pull-ident" d="M8405 2920 c-119 -59 -158 -199 -84 -306 65 -95 180 -125 269 -70 46
28 93 83 84 97 -2 4 -27 15 -54 24 -38 13 -50 21 -50 37 0 18 4 20 38 13 101
-19 92 -21 92 18 0 73 -55 157 -125 188 -52 24 -120 23 -170 -1z"/>
<path d="M8885 2601 c-8 -15 3 -31 21 -31 9 0 14 7 12 17 -4 20 -24 28 -33 14z"/>
<path d="M2350 2575 c0 -28 24 -34 34 -9 8 20 -1 34 -20 34 -8 0 -14 -10 -14
-25z"/>
<path d="M1510 2305 c0 -48 2 -55 20 -55 18 0 20 7 20 55 0 48 -2 55 -20 55
-18 0 -20 -7 -20 -55z"/>
<path d="M8897 2344 c-12 -13 -7 -80 7 -100 22 -29 38 -5 34 52 -2 34 -8 50
-18 52 -9 1 -19 0 -23 -4z"/>
</g>
	<text x="50%" y="50%" text-anchor="start">
		<textPath id="comm_freq0" href="#comm_display0"></textPath>
		<textPath id="comm_freq1" href="#comm_display1"></textPath>
	</text>
</svg>
